<svg xmlns="http://www.w3.org/2000/svg" width="800" height="700" viewBox="0 0 800 700"><rect width="100%" height="100%" fill="#8e96c8"/><path fill="#FFFFFF" d="m190.825 324.655-2.31 4.39q-.42.72-.88 1.05-.47.33-1.16.33-.72 0-1.57-.54-.84-.53-2.01-1.19-1.18-.65-2.75-1.19-1.57-.53-3.71-.53-1.93 0-3.38.46-1.45.47-2.43 1.3-.98.82-1.47 1.98-.48 1.16-.48 2.54 0 1.75.98 2.93.99 1.17 2.61 2 1.62.83 3.69 1.48 2.07.66 4.24 1.4 2.18.74 4.25 1.72 2.07.99 3.69 2.49 1.62 1.5 2.6 3.67.99 2.18.99 5.28 0 3.38-1.16 6.33-1.15 2.95-3.38 5.14-2.22 2.19-5.43 3.45-3.21 1.26-7.35 1.26-2.38 0-4.69-.46-2.32-.47-4.44-1.33-2.12-.86-3.98-2.07-1.86-1.21-3.31-2.69l2.72-4.45q.35-.49.9-.81.55-.33 1.17-.33.86 0 1.86.71 1.01.7 2.39 1.56 1.38.87 3.22 1.57 1.85.71 4.43.71 3.97 0 6.15-1.88 2.17-1.88 2.17-5.4 0-1.96-.98-3.21-.99-1.24-2.61-2.08-1.62-.85-3.69-1.44-2.07-.58-4.21-1.27-2.14-.69-4.21-1.66-2.07-.96-3.69-2.52-1.62-1.55-2.6-3.88-.99-2.33-.99-5.74 0-2.73 1.09-5.31 1.09-2.59 3.16-4.59 2.07-2 5.1-3.21 3.04-1.21 6.97-1.21 4.42 0 8.14 1.38 3.73 1.38 6.35 3.86Zm35.22 14.18-2.24 3.11q-.38.48-.74.76-.36.27-1.05.27-.66 0-1.28-.39-.62-.4-1.48-.9t-2.05-.9q-1.19-.39-2.95-.39-2.25 0-3.94.81t-2.81 2.33q-1.12 1.51-1.67 3.67-.55 2.16-.55 4.88 0 2.83.6 5.04t1.74 3.71q1.14 1.5 2.76 2.28 1.62.77 3.66.77 2.03 0 3.29-.5 1.26-.5 2.13-1.1.86-.61 1.5-1.11.63-.5 1.43-.5 1.03 0 1.55.8l2.45 3.1q-1.41 1.66-3.07 2.78-1.66 1.12-3.43 1.79-1.78.68-3.66.95-1.88.28-3.74.28-3.28 0-6.18-1.23-2.9-1.22-5.07-3.57-2.17-2.34-3.43-5.74-1.26-3.4-1.26-7.75 0-3.9 1.12-7.23 1.12-3.32 3.29-5.76 2.18-2.43 5.39-3.81 3.2-1.38 7.38-1.38 3.97 0 6.95 1.28 2.98 1.27 5.36 3.65Zm12.39 9.25h16.08q0-1.66-.47-3.12-.46-1.47-1.4-2.57-.93-1.11-2.36-1.74-1.43-.64-3.33-.64-3.69 0-5.81 2.1-2.12 2.11-2.71 5.97Zm21.74 5.14h-21.91q.2 2.73.96 4.71t2 3.28q1.25 1.29 2.95 1.93 1.71.64 3.78.64t3.57-.49q1.5-.48 2.63-1.06 1.12-.59 1.96-1.07.85-.49 1.64-.49 1.07 0 1.59.8l2.45 3.1q-1.42 1.66-3.18 2.78-1.76 1.12-3.67 1.79-1.92.68-3.9.95-1.98.28-3.85.28-3.69 0-6.86-1.23-3.18-1.22-5.52-3.62-2.35-2.4-3.69-5.93-1.35-3.54-1.35-8.2 0-3.62 1.17-6.81 1.18-3.19 3.37-5.56 2.19-2.36 5.35-3.74 3.15-1.38 7.12-1.38 3.35 0 6.17 1.07 2.83 1.07 4.87 3.12 2.03 2.06 3.19 5.04 1.16 2.98 1.16 6.81 0 1.94-.42 2.61-.41.67-1.58.67Zm15.76-17.21.59 2.79q1.07-1.07 2.26-1.98 1.19-.92 2.52-1.56 1.32-.63 2.84-1 1.52-.36 3.31-.36 2.9 0 5.15.98 2.24.99 3.74 2.76 1.5 1.78 2.28 4.25.77 2.46.77 5.43v22.53h-8.52v-22.53q0-3.24-1.48-5.02-1.49-1.78-4.52-1.78-2.21 0-4.14 1.01-1.93 1-3.66 2.72v25.6h-8.52v-35.4h5.21q1.65 0 2.17 1.56Zm38.26 12.07h16.08q0-1.66-.47-3.12-.46-1.47-1.39-2.57-.94-1.11-2.37-1.74-1.43-.64-3.33-.64-3.69 0-5.81 2.1-2.12 2.11-2.71 5.97Zm21.74 5.14h-21.91q.21 2.73.97 4.71.75 1.98 2 3.28 1.24 1.29 2.95 1.93 1.7.64 3.77.64 2.07 0 3.58-.49 1.5-.48 2.62-1.06 1.12-.59 1.96-1.07.85-.49 1.64-.49 1.07 0 1.59.8l2.45 3.1q-1.42 1.66-3.18 2.78-1.75 1.12-3.67 1.79-1.91.68-3.9.95-1.98.28-3.84.28-3.7 0-6.87-1.23-3.17-1.22-5.52-3.62-2.35-2.4-3.69-5.93-1.35-3.54-1.35-8.2 0-3.62 1.18-6.81 1.17-3.19 3.36-5.56 2.19-2.36 5.35-3.74 3.15-1.38 7.12-1.38 3.35 0 6.18 1.07 2.83 1.07 4.86 3.12 2.04 2.06 3.19 5.04 1.16 2.98 1.16 6.81 0 1.94-.42 2.61-.41.67-1.58.67Zm55.37-28.57-2.31 4.39q-.42.72-.88 1.05-.47.33-1.16.33-.72 0-1.57-.54-.84-.53-2.02-1.19-1.17-.65-2.74-1.19-1.57-.53-3.71-.53-1.93 0-3.38.46-1.45.47-2.43 1.3-.98.82-1.47 1.98-.48 1.16-.48 2.54 0 1.75.98 2.93.99 1.17 2.61 2 1.62.83 3.69 1.48 2.07.66 4.24 1.4 2.18.74 4.25 1.72 2.07.99 3.69 2.49 1.62 1.5 2.6 3.67.99 2.18.99 5.28 0 3.38-1.16 6.33-1.15 2.95-3.38 5.14-2.23 2.19-5.43 3.45-3.21 1.26-7.35 1.26-2.38 0-4.69-.46-2.32-.47-4.44-1.33-2.12-.86-3.98-2.07-1.87-1.21-3.31-2.69l2.72-4.45q.35-.49.9-.81.55-.33 1.17-.33.86 0 1.86.71 1 .7 2.38 1.56 1.38.87 3.23 1.57 1.85.71 4.43.71 3.97 0 6.14-1.88 2.18-1.88 2.18-5.4 0-1.96-.98-3.21-.99-1.24-2.61-2.08-1.62-.85-3.69-1.44-2.07-.58-4.21-1.27-2.14-.69-4.21-1.66-2.07-.96-3.69-2.52-1.62-1.55-2.61-3.88-.98-2.33-.98-5.74 0-2.73 1.09-5.31 1.08-2.59 3.15-4.59t5.11-3.21q3.04-1.21 6.97-1.21 4.42 0 8.14 1.38 3.73 1.38 6.35 3.86Zm15.01 11.36.58 2.79q1.07-1.07 2.26-1.98 1.19-.92 2.52-1.56 1.33-.63 2.85-1 1.52-.36 3.31-.36 2.9 0 5.14.98 2.24.99 3.74 2.76 1.5 1.78 2.28 4.25.78 2.46.78 5.43v22.53h-8.52v-22.53q0-3.24-1.49-5.02-1.48-1.78-4.52-1.78-2.21 0-4.14 1.01-1.93 1-3.65 2.72v25.6h-8.53v-35.4h5.21q1.66 0 2.18 1.56Zm50.23 24.7v-5.97q-3.69.17-6.21.64-2.52.46-4.04 1.19-1.52.72-2.17 1.69-.66.96-.66 2.1 0 2.24 1.33 3.21 1.33.97 3.47.97 2.62 0 4.54-.95 1.91-.95 3.74-2.88Zm-18.01-18.6-1.52-2.72q6.11-5.59 14.7-5.59 3.1 0 5.55 1.02 2.45 1.01 4.14 2.82 1.69 1.82 2.57 4.33.88 2.52.88 5.52v22.36h-3.86q-1.21 0-1.86-.36-.66-.36-1.04-1.47l-.76-2.55q-1.34 1.21-2.62 2.12-1.28.91-2.66 1.54-1.38.62-2.95.94-1.57.33-3.46.33-2.25 0-4.14-.6-1.9-.61-3.28-1.81-1.38-1.21-2.14-3-.76-1.8-.76-4.18 0-1.34.45-2.67.45-1.33 1.47-2.54 1.01-1.21 2.64-2.28 1.62-1.07 3.98-1.86t5.5-1.29q3.14-.5 7.18-.61v-2.07q0-3.55-1.52-5.26t-4.38-1.71q-2.07 0-3.43.49-1.37.48-2.4 1.08-1.04.61-1.88 1.09-.85.48-1.88.48-.9 0-1.52-.46-.62-.47-1-1.09Zm42.85 2.69v15.87q1.45 1.76 3.16 2.49 1.7.72 3.7.72 1.94 0 3.49-.72 1.55-.73 2.64-2.21t1.67-3.74q.59-2.26.59-5.33 0-3.11-.5-5.27-.5-2.15-1.43-3.5-.94-1.34-2.26-1.96-1.33-.63-3.02-.63-2.66 0-4.52 1.13-1.86 1.12-3.52 3.15Zm-1.14-8.79.69 3.27q2.17-2.45 4.93-3.96 2.76-1.52 6.49-1.52 2.9 0 5.3 1.2 2.39 1.21 4.14 3.51 1.74 2.29 2.69 5.65.95 3.37.95 7.72 0 3.96-1.07 7.34t-3.06 5.87q-1.98 2.48-4.79 3.88t-6.3 1.4q-2.97 0-5.07-.92-2.1-.91-3.76-2.53v14.49h-8.52v-46.96h5.21q1.65 0 2.17 1.56Zm55.34 2.27-1.93 3.07q-.35.55-.73.78-.38.22-.96.22-.62 0-1.33-.34-.71-.35-1.64-.78-.93-.43-2.12-.77-1.19-.35-2.81-.35-2.52 0-3.95 1.07-1.44 1.07-1.44 2.79 0 1.14.75 1.92.74.78 1.96 1.36 1.23.59 2.78 1.05 1.55.47 3.16 1.02 1.6.55 3.15 1.26 1.56.71 2.78 1.8 1.22 1.08 1.97 2.6.74 1.52.74 3.66 0 2.55-.92 4.71-.91 2.15-2.7 3.72-1.8 1.57-4.44 2.45-2.64.88-6.09.88-1.83 0-3.57-.33-1.74-.32-3.34-.91-1.61-.59-2.97-1.38-1.36-.79-2.4-1.73l1.97-3.24q.38-.58.89-.9.52-.31 1.32-.31.79 0 1.5.45.7.45 1.64.97.93.52 2.19.96 1.26.45 3.19.45 1.52 0 2.6-.36 1.09-.36 1.8-.95.7-.58 1.03-1.36.33-.78.33-1.6 0-1.25-.74-2.04t-1.97-1.38q-1.22-.59-2.79-1.05-1.57-.47-3.21-1.02t-3.21-1.29q-1.57-.75-2.8-1.88-1.22-1.14-1.96-2.8-.74-1.65-.74-4 0-2.17.86-4.14.86-1.97 2.53-3.43 1.68-1.47 4.18-2.35 2.5-.88 5.78-.88 3.65 0 6.66 1.21 3 1.21 5 3.17Zm15.32-19.7v19.67q2.07-1.93 4.55-3.14 2.48-1.21 5.83-1.21 2.9 0 5.14.98 2.24.99 3.75 2.76 1.5 1.78 2.27 4.25.78 2.46.78 5.43v22.53h-8.52v-22.53q0-3.24-1.49-5.02-1.48-1.78-4.52-1.78-2.2 0-4.14 1.01-1.93 1-3.65 2.72v25.6h-8.52v-51.27h8.52Zm46.05 15.32q3.94 0 7.16 1.28 3.23 1.27 5.52 3.62 2.3 2.35 3.54 5.73 1.24 3.38 1.24 7.55 0 4.21-1.24 7.59t-3.54 5.76q-2.29 2.38-5.52 3.66-3.22 1.28-7.16 1.28-3.96 0-7.21-1.28-3.24-1.28-5.53-3.66-2.3-2.38-3.56-5.76-1.26-3.38-1.26-7.59 0-4.17 1.26-7.55t3.56-5.73q2.29-2.35 5.53-3.62 3.25-1.28 7.21-1.28Zm0 29.91q4.42 0 6.54-2.96 2.12-2.97 2.12-8.7 0-5.73-2.12-8.73t-6.54-3q-4.48 0-6.64 3.02-2.15 3.02-2.15 8.71 0 5.69 2.15 8.68 2.16 2.98 6.64 2.98Zm35.78 6.59q-4.62 0-7.09-2.6-2.47-2.61-2.47-7.2v-19.76h-3.62q-.69 0-1.17-.45t-.48-1.35v-3.38l5.69-.93 1.79-9.66q.17-.69.66-1.07.48-.38 1.24-.38h4.42v11.14h9.45v6.08h-9.45v19.18q0 1.65.81 2.58.81.94 2.22.94.8 0 1.33-.19t.93-.4q.4-.21.71-.4.31-.19.62-.19.38 0 .62.19t.52.57l2.55 4.14q-1.86 1.55-4.28 2.35-2.41.79-5 .79Z"/></svg>