<svg xmlns="http://www.w3.org/2000/svg" width="437" height="249" viewBox="0 0 437 249"><rect width="100%" height="100%" fill="#8e96c8"/><path fill="#FFFFFF" d="m103.305 110.54-1.28 2.41q-.23.4-.48.58-.26.18-.64.18-.4 0-.86-.29-.47-.3-1.11-.66-.65-.36-1.51-.65-.87-.3-2.05-.3-1.06 0-1.86.26t-1.34.71q-.54.46-.81 1.09-.26.64-.26 1.4 0 .97.54 1.62.54.64 1.43 1.1.9.45 2.04.81 1.14.37 2.33.77 1.2.41 2.34.95 1.14.55 2.03 1.37.9.83 1.44 2.03.54 1.19.54 2.9 0 1.86-.64 3.49-.63 1.62-1.86 2.83-1.22 1.21-2.99 1.9-1.77.69-4.05.69-1.31 0-2.58-.25-1.28-.26-2.44-.73-1.17-.48-2.2-1.14-1.02-.67-1.82-1.49l1.5-2.45q.19-.26.49-.44.31-.18.65-.18.47 0 1.02.39.56.39 1.32.86t1.77.86q1.02.39 2.44.39 2.19 0 3.39-1.03 1.19-1.04 1.19-2.97 0-1.09-.54-1.77-.54-.69-1.43-1.15-.9-.47-2.04-.79-1.14-.32-2.31-.7-1.18-.38-2.32-.92-1.14-.53-2.04-1.38-.89-.86-1.43-2.14-.54-1.28-.54-3.16 0-1.5.6-2.93.6-1.42 1.74-2.53 1.14-1.1 2.81-1.76 1.67-.67 3.84-.67 2.43 0 4.48.76 2.05.76 3.5 2.13Zm19.39 7.81-1.23 1.71q-.21.26-.41.42-.2.15-.58.15-.36 0-.7-.22-.34-.22-.82-.49-.47-.28-1.13-.5-.65-.22-1.62-.22-1.24 0-2.17.45-.93.45-1.55 1.28-.62.84-.92 2.03-.3 1.18-.3 2.68 0 1.56.33 2.78.33 1.22.96 2.04.63.83 1.52 1.26.89.42 2.01.42 1.12 0 1.82-.27.69-.28 1.17-.61.47-.33.82-.61.35-.27.79-.27.57 0 .86.43l1.34 1.71q-.77.92-1.69 1.53-.91.62-1.89.99-.98.37-2.01.52-1.04.15-2.06.15-1.81 0-3.4-.67-1.6-.67-2.8-1.97-1.19-1.29-1.89-3.16-.69-1.87-.69-4.27 0-2.14.62-3.98.61-1.83 1.81-3.17 1.2-1.34 2.97-2.1 1.76-.76 4.06-.76 2.19 0 3.83.71 1.64.7 2.95 2.01Zm6.83 5.09h8.85q0-.91-.26-1.72-.25-.81-.77-1.41-.51-.61-1.3-.96t-1.83-.35q-2.03 0-3.2 1.15-1.17 1.16-1.49 3.29Zm11.97 2.83h-12.07q.11 1.5.53 2.6.42 1.09 1.1 1.8.69.71 1.63 1.06.94.36 2.08.36 1.14 0 1.97-.27.82-.27 1.44-.59.62-.32 1.08-.59.47-.26.91-.26.58 0 .87.43l1.35 1.71q-.78.92-1.75 1.53-.97.62-2.02.99-1.06.37-2.15.52-1.09.15-2.12.15-2.03 0-3.78-.67t-3.04-1.99q-1.29-1.33-2.03-3.27-.74-1.95-.74-4.51 0-2 .64-3.76.65-1.75 1.86-3.06 1.2-1.3 2.94-2.06t3.92-.76q1.85 0 3.4.59 1.56.59 2.68 1.72t1.76 2.77q.64 1.65.64 3.76 0 1.06-.23 1.43-.23.37-.87.37Zm8.68-9.48.32 1.54q.59-.59 1.25-1.09.65-.51 1.38-.86.73-.35 1.57-.55.84-.2 1.82-.2 1.6 0 2.84.54 1.23.55 2.06 1.52.82.98 1.25 2.34.43 1.36.43 2.99v12.41h-4.69v-12.41q0-1.78-.82-2.76-.82-.98-2.49-.98-1.22 0-2.28.55-1.06.55-2.01 1.5v14.1h-4.7v-19.49h2.87q.91 0 1.2.85Zm21.07 6.65h8.85q0-.91-.25-1.72-.26-.81-.77-1.41-.52-.61-1.3-.96-.79-.35-1.84-.35-2.03 0-3.2 1.15-1.17 1.16-1.49 3.29Zm11.97 2.83h-12.07q.12 1.5.54 2.6.41 1.09 1.1 1.8.68.71 1.62 1.06.94.36 2.08.36 1.14 0 1.97-.27.83-.27 1.44-.59.62-.32 1.09-.59.46-.26.9-.26.59 0 .87.43l1.35 1.71q-.78.92-1.75 1.53-.96.62-2.02.99-1.05.37-2.15.52-1.09.15-2.11.15-2.04 0-3.79-.67-1.74-.67-3.04-1.99-1.29-1.33-2.03-3.27-.74-1.95-.74-4.51 0-2 .65-3.76.64-1.75 1.85-3.06 1.21-1.3 2.94-2.06 1.74-.76 3.93-.76 1.84 0 3.4.59 1.56.59 2.68 1.72t1.76 2.77q.63 1.65.63 3.76 0 1.06-.23 1.43-.22.37-.87.37Zm30.49-15.73-1.27 2.41q-.23.4-.48.58-.26.18-.64.18-.4 0-.86-.29-.47-.3-1.12-.66-.64-.36-1.51-.65-.86-.3-2.04-.3-1.06 0-1.86.26t-1.34.71q-.54.46-.81 1.09-.26.64-.26 1.4 0 .97.54 1.62.54.64 1.43 1.1.9.45 2.04.81 1.14.37 2.33.77 1.2.41 2.34.95 1.14.55 2.03 1.37.9.83 1.44 2.03.54 1.19.54 2.9 0 1.86-.64 3.49-.63 1.62-1.86 2.83t-2.99 1.9q-1.77.69-4.05.69-1.31 0-2.58-.25-1.28-.26-2.44-.73-1.17-.48-2.2-1.14-1.03-.67-1.82-1.49l1.5-2.45q.19-.26.49-.44.31-.18.65-.18.47 0 1.02.39t1.31.86q.76.47 1.78.86t2.44.39q2.19 0 3.38-1.03 1.2-1.04 1.2-2.97 0-1.09-.54-1.77-.54-.69-1.43-1.15-.9-.47-2.04-.79-1.14-.32-2.32-.7-1.17-.38-2.31-.92-1.14-.53-2.04-1.38-.89-.86-1.43-2.14-.54-1.28-.54-3.16 0-1.5.6-2.93.59-1.42 1.73-2.53 1.14-1.1 2.82-1.76 1.67-.67 3.83-.67 2.44 0 4.49.76 2.05.76 3.49 2.13Zm8.27 6.25.32 1.54q.59-.59 1.25-1.09.65-.51 1.38-.86.74-.35 1.57-.55.84-.2 1.83-.2 1.59 0 2.83.54 1.23.55 2.06 1.52.82.98 1.25 2.34.43 1.36.43 2.99v12.41h-4.69v-12.41q0-1.78-.82-2.76-.82-.98-2.49-.98-1.22 0-2.28.55-1.06.55-2.01 1.5v14.1h-4.7v-19.49h2.87q.91 0 1.2.85Zm27.66 13.6v-3.28q-2.03.09-3.42.35-1.38.26-2.22.66-.84.39-1.2.93-.36.53-.36 1.16 0 1.23.73 1.76.74.53 1.91.53 1.45 0 2.5-.52 1.06-.52 2.06-1.59Zm-9.91-10.24-.84-1.5q3.36-3.08 8.09-3.08 1.71 0 3.06.57 1.35.56 2.28 1.55.93 1 1.42 2.39.48 1.39.48 3.04v12.31h-2.13q-.66 0-1.02-.2t-.57-.81l-.42-1.4q-.74.66-1.44 1.17-.71.5-1.47.84-.76.34-1.62.52-.87.18-1.91.18-1.24 0-2.28-.33-1.05-.33-1.81-1-.76-.66-1.17-1.65-.42-.99-.42-2.3 0-.74.25-1.47.24-.73.8-1.4.56-.66 1.46-1.25.89-.59 2.19-1.03 1.3-.43 3.03-.71 1.73-.28 3.95-.33v-1.14q0-1.96-.83-2.9-.84-.94-2.42-.94-1.14 0-1.89.27-.75.26-1.32.59-.57.34-1.03.6-.47.27-1.04.27-.49 0-.83-.26-.35-.25-.55-.6Zm23.59 1.49v8.74q.8.97 1.74 1.36.94.4 2.04.4 1.07 0 1.92-.4.86-.39 1.46-1.21t.92-2.06q.32-1.25.32-2.94 0-1.71-.27-2.9-.28-1.18-.79-1.92-.52-.75-1.25-1.09-.73-.34-1.66-.34-1.46 0-2.49.62-1.02.62-1.94 1.74Zm-.62-4.85.38 1.81q1.19-1.35 2.71-2.19 1.52-.84 3.58-.84 1.59 0 2.91.67t2.28 1.93q.96 1.26 1.48 3.11.53 1.86.53 4.25 0 2.19-.59 4.05-.59 1.86-1.68 3.23-1.1 1.37-2.64 2.14-1.55.76-3.47.76-1.64 0-2.8-.5-1.15-.5-2.07-1.39v7.98h-4.69v-25.86h2.87q.91 0 1.2.85Zm30.47 1.26-1.06 1.69q-.19.3-.4.42-.21.13-.53.13-.34 0-.73-.19-.39-.19-.91-.43-.51-.24-1.16-.43-.66-.19-1.55-.19-1.39 0-2.18.59-.79.59-.79 1.54 0 .63.41 1.05.41.43 1.08.75.68.33 1.53.58.86.26 1.74.57.89.3 1.74.69.86.39 1.53.99.67.59 1.08 1.43.41.84.41 2.02 0 1.4-.5 2.59-.51 1.19-1.49 2.05-.99.86-2.44 1.35-1.46.48-3.36.48-1.01 0-1.96-.18-.96-.18-1.85-.5-.88-.32-1.63-.76-.75-.44-1.32-.95l1.08-1.79q.21-.32.49-.49.29-.17.73-.17.43 0 .82.25.39.24.91.53.51.28 1.2.53.7.25 1.76.25.84 0 1.43-.2.6-.2.99-.53.39-.32.57-.75.18-.42.18-.88 0-.68-.41-1.12-.4-.44-1.08-.76-.67-.32-1.54-.58-.86-.26-1.76-.56-.91-.3-1.77-.71-.87-.41-1.54-1.04-.68-.62-1.08-1.54-.41-.91-.41-2.2 0-1.2.47-2.28.48-1.08 1.4-1.89.92-.81 2.3-1.29 1.38-.49 3.18-.49 2.01 0 3.67.67 1.65.66 2.75 1.75Zm8.44-10.85v10.83q1.14-1.07 2.51-1.73 1.36-.67 3.21-.67 1.59 0 2.83.54 1.23.55 2.06 1.52.83.98 1.25 2.34.43 1.36.43 2.99v12.41h-4.69v-12.41q0-1.78-.82-2.76-.82-.98-2.49-.98-1.21 0-2.28.55-1.06.55-2.01 1.5v14.1h-4.69V107.2h4.69Zm25.36 8.43q2.17 0 3.95.71 1.77.7 3.04 1.99 1.26 1.29 1.94 3.15.69 1.87.69 4.16 0 2.32-.69 4.19-.68 1.86-1.94 3.17-1.27 1.31-3.04 2.01-1.78.7-3.95.7-2.18 0-3.97-.7-1.78-.7-3.05-2.01-1.26-1.31-1.95-3.17-.7-1.87-.7-4.19 0-2.29.7-4.16.69-1.86 1.95-3.15 1.27-1.29 3.05-1.99 1.79-.71 3.97-.71Zm0 16.48q2.44 0 3.6-1.64 1.17-1.63 1.17-4.79 0-3.15-1.17-4.8-1.16-1.66-3.6-1.66-2.47 0-3.65 1.67-1.19 1.66-1.19 4.79 0 3.14 1.19 4.78 1.18 1.65 3.65 1.65Zm19.71 3.62q-2.55 0-3.91-1.43-1.36-1.43-1.36-3.96v-10.89h-1.99q-.38 0-.65-.25-.26-.24-.26-.74v-1.86l3.13-.51.99-5.32q.09-.38.36-.59.27-.21.68-.21h2.44v6.14h5.2v3.34h-5.2v10.56q0 .92.44 1.43.45.51 1.23.51.44 0 .73-.1.29-.11.51-.22.22-.11.39-.22.17-.1.34-.1.21 0 .35.1.13.11.28.31l1.41 2.28q-1.03.86-2.36 1.3-1.33.43-2.75.43Z"/></svg>